<svg width="109" height="27" viewBox="0 0 109 27" fill="none" xmlns="http://www.w3.org/2000/svg">
<g clip-path="url(#clip0_105_723)">
<path fill-rule="evenodd" clip-rule="evenodd" d="M6.45925 2.21301V26.3994H0V2.21301H6.45925Z" fill="#D5D5D5"/>
<path fill-rule="evenodd" clip-rule="evenodd" d="M9.68896 2.21301H23.4149C27.8741 2.21301 31.489 5.82255 31.489 10.2751C31.489 14.7278 27.8741 18.3373 23.4149 18.3373H16.1482V26.3994H9.68896V2.21301ZM16.1482 11.8876H23.4149C24.3068 11.8876 25.0297 11.1657 25.0297 10.2751C25.0297 9.38463 24.3068 8.66272 23.4149 8.66272H16.1482V11.8876Z" fill="#D5D5D5"/>
<path fill-rule="evenodd" clip-rule="evenodd" d="M55.7112 2.21301V14.7093C55.7112 17.6035 58.0608 19.9497 60.9593 19.9497C63.8578 19.9497 66.2076 17.6035 66.2076 14.7093V2.21301H72.667V14.7093C72.667 21.1656 67.4253 26.3994 60.9593 26.3994C54.4935 26.3994 49.252 21.1656 49.252 14.7093V2.21301H55.7112Z" fill="#D5D5D5"/>
<path fill-rule="evenodd" clip-rule="evenodd" d="M33.9109 13.5C33.9109 7.26636 38.9717 2.21301 45.2146 2.21301H46.8294V8.66272H45.2146C42.5391 8.66272 40.3702 10.8285 40.3702 13.5V14.3062C40.3702 20.9851 34.9478 26.3994 28.259 26.3994H27.4517V19.9497H28.259C31.3805 19.9497 33.9109 17.423 33.9109 14.3062V13.5Z" fill="#D5D5D5"/>
<path d="M109 3.01922C109 4.355 107.915 5.43786 106.577 5.43786C105.239 5.43786 104.155 4.355 104.155 3.01922C104.155 1.68345 105.239 0.600586 106.577 0.600586C107.915 0.600586 109 1.68345 109 3.01922Z" fill="#D5D5D5"/>
<path d="M79.602 26.3994L82.6844 13.5117L84.9759 21.265C86.342 25.8893 92.902 25.8893 94.2687 21.265L96.5596 13.5117L99.6419 26.3994H106.283L101.436 6.13411C100.284 1.31486 93.4824 1.13643 92.0777 5.88865L89.6223 14.1987L87.1662 5.88866C85.7621 1.13645 78.9603 1.31484 77.8077 6.13411L72.9614 26.3994H79.602Z" fill="#D5D5D5"/>
</g>
<defs>
<clipPath id="clip0_105_723">
<rect width="109" height="25.7988" fill="white" transform="translate(0 0.600586)"/>
</clipPath>
</defs>
</svg>
