<svg width="160" height="31" viewBox="0 0 160 31" fill="none" xmlns="http://www.w3.org/2000/svg">
<g clip-path="url(#clip0_105_730)">
<path d="M38.5654 1.77466H42.5601V23.5637H49.1331V27.1953H38.5654V1.77466Z" fill="#D5D5D5"/>
<path d="M56.6813 27.5584C54.7203 27.5584 53.2193 27.0016 52.1782 25.8879C51.1372 24.7742 50.6167 23.2006 50.6167 21.1669V7.80297C50.6167 5.76932 51.1372 4.19566 52.1782 3.082C53.2193 1.96833 54.7203 1.4115 56.6813 1.4115C58.6423 1.4115 60.1433 1.96833 61.1844 3.082C62.2254 4.19566 62.7459 5.76932 62.7459 7.80297V21.1669C62.7459 23.2006 62.2254 24.7742 61.1844 25.8879C60.1433 27.0016 58.6423 27.5584 56.6813 27.5584ZM56.6813 23.9269C58.0613 23.9269 58.7513 23.0916 58.7513 21.4211V7.54876C58.7513 5.87826 58.0613 5.04301 56.6813 5.04301C55.3013 5.04301 54.6113 5.87826 54.6113 7.54876V21.4211C54.6113 23.0916 55.3013 23.9269 56.6813 23.9269Z" fill="#D5D5D5"/>
<path d="M71.1124 27.5584C69.1756 27.5584 67.6988 27.0137 66.6819 25.9242C65.6651 24.8106 65.1567 23.2248 65.1567 21.1669V7.80297C65.1567 5.74511 65.6651 4.17145 66.6819 3.082C67.6988 1.96833 69.1756 1.4115 71.1124 1.4115C73.0492 1.4115 74.526 1.96833 75.5428 3.082C76.5597 4.17145 77.0681 5.74511 77.0681 7.80297V9.98187H73.2913V7.54876C73.2913 5.87826 72.6013 5.04301 71.2213 5.04301C69.8414 5.04301 69.1514 5.87826 69.1514 7.54876V21.4575C69.1514 23.1038 69.8414 23.9269 71.2213 23.9269C72.6013 23.9269 73.2913 23.1038 73.2913 21.4575V16.4823H71.294V12.8508H77.0681V21.1669C77.0681 23.2248 76.5597 24.8106 75.5428 25.9242C74.526 27.0137 73.0492 27.5584 71.1124 27.5584Z" fill="#D5D5D5"/>
<path d="M85.4069 27.5584C83.4459 27.5584 81.9449 27.0016 80.9039 25.8879C79.8628 24.7742 79.3423 23.2006 79.3423 21.1669V7.80297C79.3423 5.76932 79.8628 4.19566 80.9039 3.082C81.9449 1.96833 83.4459 1.4115 85.4069 1.4115C87.368 1.4115 88.869 1.96833 89.91 3.082C90.9511 4.19566 91.4716 5.76932 91.4716 7.80297V21.1669C91.4716 23.2006 90.9511 24.7742 89.91 25.8879C88.869 27.0016 87.368 27.5584 85.4069 27.5584ZM85.4069 23.9269C86.7869 23.9269 87.4769 23.0916 87.4769 21.4211V7.54876C87.4769 5.87826 86.7869 5.04301 85.4069 5.04301C84.027 5.04301 83.337 5.87826 83.337 7.54876V21.4211C83.337 23.0916 84.027 23.9269 85.4069 23.9269Z" fill="#D5D5D5"/>
<path d="M94.1807 1.77466H98.1754V27.1953H94.1807V1.77466Z" fill="#D5D5D5"/>
<path d="M101.167 1.77466H107.05C109.035 1.77466 110.524 2.30728 111.517 3.37253C112.51 4.43777 113.006 5.99932 113.006 8.05718V10.5629C113.006 12.6208 112.51 14.1823 111.517 15.2476C110.524 16.3128 109.035 16.8454 107.05 16.8454H105.162V27.1953H101.167V1.77466ZM107.05 13.2139C107.704 13.2139 108.188 13.0323 108.503 12.6692C108.842 12.306 109.011 11.6887 109.011 10.8171V7.80298C109.011 6.93141 108.842 6.31405 108.503 5.9509C108.188 5.58775 107.704 5.40618 107.05 5.40618H105.162V13.2139H107.05Z" fill="#D5D5D5"/>
<path d="M120.51 27.5584C118.574 27.5584 117.109 27.0137 116.116 25.9242C115.124 24.8106 114.627 23.2248 114.627 21.1669V19.7143H118.404V21.4575C118.404 23.1038 119.094 23.9269 120.474 23.9269C121.152 23.9269 121.66 23.7332 121.999 23.3459C122.362 22.9343 122.544 22.2806 122.544 21.3848C122.544 20.3196 122.302 19.3875 121.818 18.5886C121.334 17.7654 120.438 16.7849 119.13 15.647C117.484 14.1944 116.334 12.8871 115.68 11.725C115.027 10.5387 114.7 9.20715 114.7 7.73034C114.7 5.7209 115.208 4.17145 116.225 3.082C117.242 1.96833 118.719 1.4115 120.656 1.4115C122.568 1.4115 124.009 1.96833 124.977 3.082C125.97 4.17145 126.466 5.74511 126.466 7.80297V8.85611H122.689V7.54876C122.689 6.6772 122.52 6.04773 122.181 5.66037C121.842 5.2488 121.346 5.04301 120.692 5.04301C119.36 5.04301 118.695 5.85405 118.695 7.47613C118.695 8.39611 118.937 9.25557 119.421 10.0545C119.929 10.8534 120.837 11.8218 122.145 12.9597C123.815 14.4123 124.965 15.7318 125.595 16.9181C126.224 18.1044 126.539 19.4964 126.539 21.0943C126.539 23.1764 126.018 24.7742 124.977 25.8879C123.96 27.0016 122.471 27.5584 120.51 27.5584Z" fill="#D5D5D5"/>
<path d="M134.64 27.5584C132.703 27.5584 131.226 27.0137 130.209 25.9242C129.192 24.8106 128.684 23.2248 128.684 21.1669V1.77466H132.679V21.4575C132.679 22.329 132.848 22.9585 133.187 23.3459C133.55 23.7332 134.059 23.9269 134.712 23.9269C135.366 23.9269 135.862 23.7332 136.201 23.3459C136.564 22.9585 136.746 22.329 136.746 21.4575V1.77466H140.595V21.1669C140.595 23.2248 140.087 24.8106 139.07 25.9242C138.053 27.0137 136.576 27.5584 134.64 27.5584Z" fill="#D5D5D5"/>
<path d="M143.44 1.77466H149.142L151.684 19.9685H151.756L154.299 1.77466H160V27.1953H156.223V7.94824H156.151L153.245 27.1953H149.904L146.999 7.94824H146.927V27.1953H143.44V1.77466Z" fill="#D5D5D5"/>
<path d="M0 27.1953C4.91448 27.1953 8.89841 23.2113 8.89841 18.2969C8.89841 13.3824 4.91448 9.39844 0 9.39844V15.6273C1.47433 15.6273 2.66951 16.8225 2.66951 18.2969C2.66951 19.7712 1.47433 20.9664 0 20.9664V27.1953Z" fill="#D5D5D5"/>
<path d="M29.6614 12.3646C28.1408 11.8829 26.5215 11.623 24.8414 11.623C16.0363 11.623 8.89844 18.761 8.89844 27.566C8.89844 28.4498 8.97036 29.3168 9.10862 30.1614H19.0145C18.6609 29.3686 18.4643 28.4903 18.4643 27.566C18.4643 24.044 21.3194 21.1888 24.8414 21.1888C26.7664 21.1888 28.4921 22.0417 29.6614 23.3902V12.3646Z" fill="#D5D5D5"/>
<path d="M1.56445 0.5C2.30219 7.17374 7.96024 12.3646 14.8306 12.3646C21.7009 12.3646 27.359 7.17374 28.0967 0.5H18.5512C17.9619 1.9773 16.5181 3.02121 14.8306 3.02121C13.143 3.02121 11.6993 1.9773 11.1099 0.5H1.56445Z" fill="#D5D5D5"/>
</g>
<defs>
<clipPath id="clip0_105_730">
<rect width="160" height="30" fill="white" transform="translate(0 0.5)"/>
</clipPath>
</defs>
</svg>
