<svg width="78" height="31" viewBox="0 0 78 31" fill="none" xmlns="http://www.w3.org/2000/svg">
<g clip-path="url(#clip0_105_823)">
<path d="M18.5147 0.5C15.4686 0.5 12.5473 1.71005 10.3934 3.86396L3.36396 10.8934C1.21005 13.0473 0 15.9686 0 19.0147C0 25.3579 5.14214 30.5 11.4853 30.5C14.5314 30.5 17.4527 29.2899 19.6066 27.136L24.4689 22.2737C24.4689 22.2736 24.469 22.2738 24.4689 22.2737L38.636 8.1066C39.6647 7.07791 41.0599 6.5 42.5147 6.5C44.9503 6.5 47.0152 8.08741 47.7311 10.2841L52.2022 5.81296C50.1625 2.61834 46.586 0.5 42.5147 0.5C39.4686 0.5 36.5473 1.71005 34.3934 3.86396L15.364 22.8934C14.3353 23.9221 12.9401 24.5 11.4853 24.5C8.45584 24.5 6 22.0442 6 19.0147C6 17.5599 6.57791 16.1647 7.6066 15.136L14.636 8.1066C15.6647 7.07791 17.0599 6.5 18.5147 6.5C20.9504 6.5 23.0152 8.08748 23.7311 10.2842L28.2023 5.81307C26.1626 2.6184 22.5861 0.5 18.5147 0.5Z" fill="#D5D5D5"/>
<path d="M39.3641 22.8934C38.3354 23.9221 36.9402 24.5 35.4854 24.5C33.0501 24.5 30.9854 22.913 30.2693 20.7167L25.7983 25.1877C27.8381 28.3819 31.4144 30.5 35.4854 30.5C38.5315 30.5 41.4528 29.2899 43.6067 27.136L62.6361 8.1066C63.6648 7.07791 65.06 6.5 66.5148 6.5C69.5443 6.5 72.0001 8.95584 72.0001 11.9853C72.0001 13.4401 71.4222 14.8353 70.3935 15.864L63.3641 22.8934C62.3354 23.9221 60.9402 24.5 59.4854 24.5C57.0499 24.5 54.9851 22.9127 54.2691 20.7162L49.7981 25.1873C51.8378 28.3818 55.4142 30.5 59.4854 30.5C62.5315 30.5 65.4528 29.2899 67.6067 27.136L74.6361 20.1066C76.79 17.9527 78.0001 15.0314 78.0001 11.9853C78.0001 5.64214 72.858 0.5 66.5148 0.5C63.4687 0.5 60.5474 1.71005 58.3935 3.86396L39.3641 22.8934Z" fill="#D5D5D5"/>
</g>
<defs>
<clipPath id="clip0_105_823">
<rect width="78" height="30" fill="white" transform="translate(0 0.5)"/>
</clipPath>
</defs>
</svg>
